D:\school\WTK\thesis\model\3dpredictsim\Results\Batchsim_tmt_linear\Pog_s1_tmt_bCst_d05_k250_ig24_pas_GRF.mot
nRows=25
nColumns=19

name D:\school\WTK\thesis\model\3dpredictsim\Results\Batchsim_tmt_linear\Pog_s1_tmt_bCst_d05_k250_ig24_pas_GRF.mot
datacolumns 19
datarows 25
range 0.5540999365 0.8200679060
endheader
time 	ground_force_vx	ground_force_vy	ground_force_vz	ground_force_px	ground_force_py	ground_force_pz	1_ground_force_vx	1_ground_force_vy	1_ground_force_vz	1_ground_force_px	1_ground_force_py	1_ground_force_pz	ground_torque_x	ground_torque_y	ground_torque_z	1_ground_torque_x	1_ground_torque_y	1_ground_torque_z
        0.5540999365	      100.6318657579	      522.2273642484	        3.2817693493	        0.3814020726	        0.0000000000	        0.0351217235	      -68.8989701744	       57.6307243126	      -27.8298877067	        0.8685025480	        0.0000000000	       -0.0383022647	        0.0000000000	        0.0000000000	        0.0000000000	        0.0000000000	        0.0000000000	        0.0000000000	
        0.5651819352	       84.2818485358	      445.4541002521	        7.6329087636	        0.3846179903	        0.0000000000	        0.0344921948	     -108.8812040379	      128.5650285650	      -72.1484207758	        0.8756905602	        0.0000000000	       -0.0358549662	        0.0000000000	        0.0000000000	        0.0000000000	        0.0000000000	        0.0000000000	        0.0000000000	
        0.5762639340	       68.2801989292	      360.8120232469	        8.6279611497	        0.3894550855	        0.0000000000	        0.0331007856	      -47.6025824839	      260.0903616068	      -36.8511665326	        0.8809447381	        0.0000000000	       -0.0332162067	        0.0000000000	        0.0000000000	        0.0000000000	        0.0000000000	        0.0000000000	        0.0000000000	
        0.5873459327	       45.3188671465	      263.6728662385	        5.7354735896	        0.3977540335	        0.0000000000	        0.0300231311	      -41.3151802389	      407.7367404988	       -6.1870531565	        0.8840492952	        0.0000000000	       -0.0328276817	        0.0000000000	        0.0000000000	        0.0000000000	        0.0000000000	        0.0000000000	        0.0000000000	
        0.5984279314	       24.9582009567	      176.3443605835	        6.5712438857	        0.4121624805	        0.0000000000	        0.0238425948	      -66.0916149544	      585.6384240205	        4.4931681813	        0.8912978455	        0.0000000000	       -0.0348469526	        0.0000000000	        0.0000000000	        0.0000000000	        0.0000000000	        0.0000000000	        0.0000000000	
        0.6095099301	        7.4148351996	      136.3219998942	       11.9833300450	        0.4216026633	        0.0000000000	        0.0189878227	      -95.7790741491	      738.3985874699	        9.6943617477	        0.8983458770	        0.0000000000	       -0.0369930013	        0.0000000000	        0.0000000000	        0.0000000000	        0.0000000000	        0.0000000000	        0.0000000000	
        0.6205919289	        1.9980753846	      106.2122438756	       12.8908345819	        0.4218128496	        0.0000000000	        0.0191578251	     -109.2201657019	      816.3743111167	       11.8537503493	        0.9031552632	        0.0000000000	       -0.0383202819	        0.0000000000	        0.0000000000	        0.0000000000	        0.0000000000	        0.0000000000	        0.0000000000	
        0.6316739276	       -1.5604581163	       68.3596379964	       11.7318610826	        0.4223717988	        0.0000000000	        0.0192100179	     -108.5722689498	      833.2709841224	       12.1708374440	        0.9066004490	        0.0000000000	       -0.0391254044	        0.0000000000	        0.0000000000	        0.0000000000	        0.0000000000	        0.0000000000	        0.0000000000	
        0.6427559263	       -6.6894441597	       27.8572108582	        6.1346832561	        0.4222834685	        0.0000000000	        0.0189745104	     -101.5597496288	      819.9227815009	       12.2233115637	        0.9095609417	        0.0000000000	       -0.0395976118	        0.0000000000	        0.0000000000	        0.0000000000	        0.0000000000	        0.0000000000	        0.0000000000	
        0.6538379251	        0.0482172253	       -0.0471158307	       -0.0008261263	        0.0000000000	        0.0000000000	        0.0000000000	      -92.0323218985	      799.9722664846	       13.0653531559	        0.9126955267	        0.0000000000	       -0.0398269087	        0.0000000000	        0.0000000000	        0.0000000000	        0.0000000000	        0.0000000000	        0.0000000000	
        0.6649199238	        0.0000269626	       -0.0000214042	        0.0000017296	        0.0000000000	        0.0000000000	        0.0000000000	      -79.9605192266	      772.7007864362	       14.1933982700	        0.9159568952	        0.0000000000	       -0.0399328570	        0.0000000000	        0.0000000000	        0.0000000000	        0.0000000000	        0.0000000000	        0.0000000000	
        0.6760019225	        0.0000221824	       -0.0000154641	        0.0000017402	        0.0000000000	        0.0000000000	        0.0000000000	      -69.0778095099	      741.9872262008	       14.5414680024	        0.9198397560	        0.0000000000	       -0.0399658218	        0.0000000000	        0.0000000000	        0.0000000000	        0.0000000000	        0.0000000000	        0.0000000000	
        0.6870839213	        0.0002847584	       -0.0001784381	        0.0000245288	        0.0000000000	        0.0000000000	        0.0000000000	      -59.9019932498	      713.1703231405	       14.8978378801	        0.9242923542	        0.0000000000	       -0.0398971082	        0.0000000000	        0.0000000000	        0.0000000000	        0.0000000000	        0.0000000000	        0.0000000000	
        0.6981659200	        0.0038106822	       -0.0021917314	        0.0003465282	        0.0000000000	        0.0000000000	        0.0000000000	      -50.6999789474	      684.6418863891	       15.4476088042	        0.9287690599	        0.0000000000	       -0.0398368836	        0.0000000000	        0.0000000000	        0.0000000000	        0.0000000000	        0.0000000000	        0.0000000000	
        0.7092479187	       -0.0199009486	        0.0106532962	       -0.0018763291	        0.0000000000	        0.0000000000	        0.0000000000	      -42.0219794532	      657.6281877784	       15.9784623626	        0.9332224167	        0.0000000000	       -0.0398312596	        0.0000000000	        0.0000000000	        0.0000000000	        0.0000000000	        0.0000000000	        0.0000000000	
        0.7203299174	       -0.0137820583	        0.0069383768	       -0.0013370360	        0.0000000000	        0.0000000000	        0.0000000000	      -34.6558704067	      634.1833541232	       16.4624272858	        0.9376915210	        0.0000000000	       -0.0398674913	        0.0000000000	        0.0000000000	        0.0000000000	        0.0000000000	        0.0000000000	        0.0000000000	
        0.7314119162	       -0.0099831052	        0.0047690918	       -0.0009889511	        0.0000000000	        0.0000000000	        0.0000000000	      -28.4673833823	      614.8581154295	       17.0607804491	        0.9421567466	        0.0000000000	       -0.0399263605	        0.0000000000	        0.0000000000	        0.0000000000	        0.0000000000	        0.0000000000	        0.0000000000	
        0.7424939149	       -0.0095443831	        0.0043585021	       -0.0009580125	        0.0000000000	        0.0000000000	        0.0000000000	      -23.0653027993	      600.0003011889	       17.4214827225	        0.9468852446	        0.0000000000	       -0.0399926815	        0.0000000000	        0.0000000000	        0.0000000000	        0.0000000000	        0.0000000000	        0.0000000000	
        0.7535759136	       -0.0123206138	        0.0054101161	       -0.0012438610	        0.0000000000	        0.0000000000	        0.0000000000	      -19.1563737018	      589.9324810050	       17.4289689111	        0.9519823157	        0.0000000000	       -0.0400399651	        0.0000000000	        0.0000000000	        0.0000000000	        0.0000000000	        0.0000000000	        0.0000000000	
        0.7646579124	       -0.0204909187	        0.0086951284	       -0.0020607462	        0.0000000000	        0.0000000000	        0.0000000000	      -16.1061453861	      584.0057037965	       17.4138317420	        0.9574482596	        0.0000000000	       -0.0400401758	        0.0000000000	        0.0000000000	        0.0000000000	        0.0000000000	        0.0000000000	        0.0000000000	
        0.7757399111	       -0.0406454707	        0.0167421527	       -0.0040509873	        0.0000000000	        0.0000000000	        0.0000000000	      -14.7668819241	      581.4311023709	       17.4370823918	        0.9631756837	        0.0000000000	       -0.0399854291	        0.0000000000	        0.0000000000	        0.0000000000	        0.0000000000	        0.0000000000	        0.0000000000	
        0.7868219098	       -0.0880763450	        0.0353612817	       -0.0086737373	        0.0000000000	        0.0000000000	        0.0000000000	      -14.0221724630	      581.1654210389	       17.3749430861	        0.9689833231	        0.0000000000	       -0.0398857075	        0.0000000000	        0.0000000000	        0.0000000000	        0.0000000000	        0.0000000000	        0.0000000000	
        0.7979039085	       -0.1917356287	        0.0753221088	       -0.0186202645	        0.0000000000	        0.0000000000	        0.0000000000	      -13.0412443252	      581.8561448504	       17.3478622708	        0.9748674484	        0.0000000000	       -0.0397473617	        0.0000000000	        0.0000000000	        0.0000000000	        0.0000000000	        0.0000000000	        0.0000000000	
        0.8089859073	       -0.3892499336	        0.1501945023	       -0.0372146326	        0.0000000000	        0.0000000000	        0.0000000000	      -11.9754484183	      582.2911736751	       17.2407445802	        0.9807338358	        0.0000000000	       -0.0395842909	        0.0000000000	        0.0000000000	        0.0000000000	        0.0000000000	        0.0000000000	        0.0000000000	
        0.8200679060	       -0.6995108307	        0.2660397546	       -0.0657065403	        0.0000000000	        0.0000000000	        0.0000000000	      -10.5891823125	      581.7463003305	       17.0050628638	        0.9865078963	        0.0000000000	       -0.0394103986	        0.0000000000	        0.0000000000	        0.0000000000	        0.0000000000	        0.0000000000	        0.0000000000	
